<svg width="100%" height="100%" viewBox="0 0 32 32"
    style="fill-rule:evenodd;clip-rule:evenodd;stroke-miterlimit:1.5;">
    <path
        d="M18.624,0.958c0,-0.379 -0.234,-0.724 -0.6,-0.877c-0.364,-0.153 -0.787,-0.085 -1.081,0.172c-2.964,2.607 -8.809,7.75 -8.809,7.75c0,0 -4.31,0.109 -6.655,0.169c-0.823,0.021 -1.479,0.664 -1.479,1.452l0,12.92c0,0.802 0.681,1.453 1.519,1.453l6.615,0c0,0 5.845,5.143 8.809,7.75c0.294,0.257 0.717,0.325 1.081,0.172c0.366,-0.153 0.6,-0.498 0.6,-0.877l0,-30.084Zm-9.232,10.011l-6.257,0.159l0,9.871l6.221,0l6.135,5.398l0,-20.794l-6.099,5.366Z" />
    <path d="M29.378,11.931l-8.138,8.138" style="fill:none;stroke:#000;stroke-width:3.43px;" />
    <path d="M21.24,11.931l8.138,8.138" style="fill:none;stroke:#000;stroke-width:3.43px;" />
</svg>